<svg width="19" height="20" viewBox="0 0 19 20" fill="none" xmlns="http://www.w3.org/2000/svg">
<path d="M1.54605 11.0321L9.67777 2.90038C11.2405 1.33767 13.7719 1.33767 15.3346 2.90038C16.8973 4.46309 16.8973 6.99453 15.3346 8.55723L6.49579 17.3961C5.51999 18.3719 3.93607 18.3719 2.96026 17.3961C1.98445 16.4203 1.98445 14.8363 2.96026 13.8605L10.3849 6.43591C10.7738 6.04701 11.4102 6.04701 11.7991 6.43591C12.188 6.82482 12.188 7.46122 11.7991 7.85013L5.08158 14.5676L6.14224 15.6283L12.8598 8.91079C13.8356 7.93498 13.8356 6.35106 12.8598 5.37525C11.8839 4.39945 10.3 4.39945 9.32422 5.37525L1.8996 12.7999C0.336894 14.3626 0.336894 16.894 1.8996 18.4567C3.46231 20.0194 5.99375 20.0194 7.55645 18.4567L16.3953 9.61789C18.5449 7.46829 18.5449 3.98932 16.3953 1.83972C14.2457 -0.309884 10.7667 -0.309885 8.61711 1.83972L0.485387 9.97145L1.54605 11.0321Z" fill="#75634D"/>
</svg>
